<svg width="79" height="24" viewBox="0 0 79 24" fill="none" xmlns="http://www.w3.org/2000/svg">
<path opacity="0.4" d="M2 6.447C2 3.996 4.03024 2 6.52453 2H11.4856C13.9748 2 16 3.99 16 6.437V17.553C16 20.005 13.9698 22 11.4744 22H6.51537C4.02515 22 2 20.01 2 17.563V16.623V6.447Z" fill="#CC5F5F"/>
<path d="M21.7789 11.4548L18.9331 8.5458C18.639 8.2458 18.1657 8.2458 17.8725 8.5478C17.5803 8.8498 17.5813 9.3368 17.8745 9.6368L19.4337 11.2298H17.9387H9.54844C9.13452 11.2298 8.79852 11.5748 8.79852 11.9998C8.79852 12.4258 9.13452 12.7698 9.54844 12.7698H19.4337L17.8745 14.3628C17.5813 14.6628 17.5803 15.1498 17.8725 15.4518C18.0196 15.6028 18.2114 15.6788 18.4043 15.6788C18.5952 15.6788 18.787 15.6028 18.9331 15.4538L21.7789 12.5458C21.9201 12.4008 22 12.2048 22 11.9998C22 11.7958 21.9201 11.5998 21.7789 11.4548Z" fill="#CC5F5F"/>
<path d="M33.233 17.5V7.31818H34.4659V16.4062H39.1989V17.5H33.233ZM44.0511 17.6591C43.3617 17.6591 42.7569 17.495 42.2365 17.1669C41.7195 16.8388 41.3151 16.3797 41.0234 15.7898C40.7351 15.1998 40.5909 14.5104 40.5909 13.7216C40.5909 12.9261 40.7351 12.2318 41.0234 11.6385C41.3151 11.0452 41.7195 10.5845 42.2365 10.2564C42.7569 9.92827 43.3617 9.7642 44.0511 9.7642C44.7405 9.7642 45.3438 9.92827 45.8608 10.2564C46.3812 10.5845 46.7855 11.0452 47.0739 11.6385C47.3655 12.2318 47.5114 12.9261 47.5114 13.7216C47.5114 14.5104 47.3655 15.1998 47.0739 15.7898C46.7855 16.3797 46.3812 16.8388 45.8608 17.1669C45.3438 17.495 44.7405 17.6591 44.0511 17.6591ZM44.0511 16.6051C44.5748 16.6051 45.0057 16.4709 45.3438 16.2024C45.6818 15.9339 45.9321 15.581 46.0945 15.1435C46.2569 14.706 46.3381 14.232 46.3381 13.7216C46.3381 13.2112 46.2569 12.7356 46.0945 12.2947C45.9321 11.8539 45.6818 11.4976 45.3438 11.2259C45.0057 10.9541 44.5748 10.8182 44.0511 10.8182C43.5275 10.8182 43.0966 10.9541 42.7585 11.2259C42.4205 11.4976 42.1702 11.8539 42.0078 12.2947C41.8454 12.7356 41.7642 13.2112 41.7642 13.7216C41.7642 14.232 41.8454 14.706 42.0078 15.1435C42.1702 15.581 42.4205 15.9339 42.7585 16.2024C43.0966 16.4709 43.5275 16.6051 44.0511 16.6051ZM52.3848 20.5227C51.818 20.5227 51.3308 20.4498 50.9231 20.304C50.5154 20.1615 50.1757 19.9725 49.9039 19.7372C49.6355 19.5052 49.4217 19.2566 49.2626 18.9915L50.1973 18.3352C50.3033 18.4744 50.4376 18.6335 50.6 18.8125C50.7624 18.9948 50.9844 19.1522 51.2662 19.2848C51.5512 19.4207 51.9241 19.4886 52.3848 19.4886C53.0012 19.4886 53.51 19.3395 53.911 19.0412C54.3121 18.7429 54.5126 18.2756 54.5126 17.6392V16.0881H54.4132C54.327 16.2273 54.2044 16.3996 54.0453 16.6051C53.8895 16.8073 53.6641 16.9879 53.3691 17.147C53.0775 17.3028 52.6831 17.3807 52.1859 17.3807C51.5694 17.3807 51.0159 17.2348 50.5254 16.9432C50.0382 16.6515 49.652 16.2273 49.367 15.6705C49.0853 15.1136 48.9444 14.4375 48.9444 13.642C48.9444 12.8598 49.082 12.1787 49.3571 11.5987C49.6322 11.0154 50.015 10.5646 50.5055 10.2464C50.996 9.92495 51.5628 9.7642 52.2058 9.7642C52.7029 9.7642 53.0974 9.84706 53.389 10.0128C53.684 10.1752 53.9094 10.3608 54.0652 10.5696C54.2243 10.7751 54.3469 10.9441 54.4331 11.0767H54.5524V9.86364H55.6859V17.7188C55.6859 18.375 55.5368 18.9086 55.2385 19.3196C54.9435 19.7339 54.5458 20.0372 54.0453 20.2294C53.5481 20.425 52.9946 20.5227 52.3848 20.5227ZM52.345 16.3267C52.8156 16.3267 53.2134 16.219 53.5382 16.0036C53.863 15.7881 54.1099 15.4782 54.2789 15.0739C54.448 14.6695 54.5325 14.1856 54.5325 13.6222C54.5325 13.072 54.4496 12.5864 54.2839 12.1655C54.1182 11.7446 53.8729 11.4148 53.5481 11.1761C53.2233 10.9375 52.8223 10.8182 52.345 10.8182C51.8478 10.8182 51.4335 10.9441 51.1021 11.196C50.774 11.4479 50.527 11.786 50.3613 12.2102C50.1989 12.6345 50.1177 13.1051 50.1177 13.6222C50.1177 14.1525 50.2006 14.6214 50.3663 15.0291C50.5353 15.4335 50.7839 15.7517 51.112 15.9837C51.4435 16.2124 51.8545 16.3267 52.345 16.3267ZM60.9359 17.6591C60.2465 17.6591 59.6416 17.495 59.1213 17.1669C58.6042 16.8388 58.1999 16.3797 57.9082 15.7898C57.6199 15.1998 57.4757 14.5104 57.4757 13.7216C57.4757 12.9261 57.6199 12.2318 57.9082 11.6385C58.1999 11.0452 58.6042 10.5845 59.1213 10.2564C59.6416 9.92827 60.2465 9.7642 60.9359 9.7642C61.6253 9.7642 62.2285 9.92827 62.7456 10.2564C63.2659 10.5845 63.6703 11.0452 63.9586 11.6385C64.2503 12.2318 64.3961 12.9261 64.3961 13.7216C64.3961 14.5104 64.2503 15.1998 63.9586 15.7898C63.6703 16.3797 63.2659 16.8388 62.7456 17.1669C62.2285 17.495 61.6253 17.6591 60.9359 17.6591ZM60.9359 16.6051C61.4596 16.6051 61.8904 16.4709 62.2285 16.2024C62.5666 15.9339 62.8168 15.581 62.9792 15.1435C63.1416 14.706 63.2228 14.232 63.2228 13.7216C63.2228 13.2112 63.1416 12.7356 62.9792 12.2947C62.8168 11.8539 62.5666 11.4976 62.2285 11.2259C61.8904 10.9541 61.4596 10.8182 60.9359 10.8182C60.4122 10.8182 59.9814 10.9541 59.6433 11.2259C59.3052 11.4976 59.055 11.8539 58.8926 12.2947C58.7302 12.7356 58.649 13.2112 58.649 13.7216C58.649 14.232 58.7302 14.706 58.8926 15.1435C59.055 15.581 59.3052 15.9339 59.6433 16.2024C59.9814 16.4709 60.4122 16.6051 60.9359 16.6051ZM70.9996 14.3778V9.86364H72.1729V17.5H70.9996V16.2074H70.9201C70.7411 16.5952 70.4627 16.925 70.0849 17.1967C69.707 17.4652 69.2298 17.5994 68.6531 17.5994C68.1758 17.5994 67.7515 17.495 67.3803 17.2862C67.0091 17.0741 66.7174 16.7559 66.5053 16.3317C66.2932 15.9041 66.1871 15.3655 66.1871 14.7159V9.86364H67.3604V14.6364C67.3604 15.1932 67.5162 15.6373 67.8278 15.9688C68.1426 16.3002 68.5437 16.4659 69.0309 16.4659C69.3226 16.4659 69.6192 16.3913 69.9208 16.2422C70.2257 16.093 70.4809 15.8643 70.6864 15.5561C70.8952 15.2479 70.9996 14.8551 70.9996 14.3778ZM77.6429 9.86364V10.858H73.6855V9.86364H77.6429ZM74.839 8.03409H76.0123V15.3125C76.0123 15.6439 76.0603 15.8925 76.1564 16.0582C76.2559 16.2206 76.3818 16.33 76.5343 16.3864C76.69 16.4394 76.8541 16.4659 77.0265 16.4659C77.1557 16.4659 77.2618 16.4593 77.3446 16.446C77.4275 16.4295 77.4938 16.4162 77.5435 16.4062L77.7821 17.4602C77.7026 17.4901 77.5916 17.5199 77.449 17.5497C77.3065 17.5829 77.1259 17.5994 76.9071 17.5994C76.5757 17.5994 76.2509 17.5282 75.9327 17.3857C75.6178 17.2431 75.356 17.026 75.1472 16.7344C74.9417 16.4427 74.839 16.0748 74.839 15.6307V8.03409Z" fill="#CC5F5F"/>
</svg>
